<mxfile host="app.diagrams.net" modified="2023-09-25T23:22:13.470Z" agent="Mozilla/5.0 (Windows NT 10.0; Win64; x64; rv:109.0) Gecko/20100101 Firefox/117.0" etag="ZHHhCrp54-2s-wf4Il7v" version="21.8.1" type="device">
  <diagram name="Pagina-1" id="gRis0YDONrchWQ3u8g2B">
    <mxGraphModel dx="607" dy="856" grid="1" gridSize="10" guides="1" tooltips="1" connect="1" arrows="1" fold="1" page="1" pageScale="1" pageWidth="827" pageHeight="1169" math="0" shadow="0">
      <root>
        <mxCell id="0" />
        <mxCell id="1" parent="0" />
        <mxCell id="Qs7e2NvcmOTpZu29L-sS-1" style="edgeStyle=orthogonalEdgeStyle;rounded=0;orthogonalLoop=1;jettySize=auto;html=1;" edge="1" parent="1" source="Qs7e2NvcmOTpZu29L-sS-3" target="Qs7e2NvcmOTpZu29L-sS-6">
          <mxGeometry relative="1" as="geometry" />
        </mxCell>
        <mxCell id="Qs7e2NvcmOTpZu29L-sS-2" value="sequence_a" style="edgeLabel;html=1;align=center;verticalAlign=middle;resizable=0;points=[];" vertex="1" connectable="0" parent="Qs7e2NvcmOTpZu29L-sS-1">
          <mxGeometry x="0.3309" y="-2" relative="1" as="geometry">
            <mxPoint x="-14" y="-14" as="offset" />
          </mxGeometry>
        </mxCell>
        <mxCell id="Qs7e2NvcmOTpZu29L-sS-3" value="q0" style="ellipse;whiteSpace=wrap;html=1;aspect=fixed;" vertex="1" parent="1">
          <mxGeometry x="961" y="120" width="40" height="40" as="geometry" />
        </mxCell>
        <mxCell id="Qs7e2NvcmOTpZu29L-sS-4" style="edgeStyle=orthogonalEdgeStyle;rounded=0;orthogonalLoop=1;jettySize=auto;html=1;" edge="1" parent="1" source="Qs7e2NvcmOTpZu29L-sS-6" target="Qs7e2NvcmOTpZu29L-sS-9">
          <mxGeometry relative="1" as="geometry" />
        </mxCell>
        <mxCell id="Qs7e2NvcmOTpZu29L-sS-5" value="sequence_b" style="edgeLabel;html=1;align=center;verticalAlign=middle;resizable=0;points=[];" vertex="1" connectable="0" parent="Qs7e2NvcmOTpZu29L-sS-4">
          <mxGeometry x="0.2868" y="2" relative="1" as="geometry">
            <mxPoint x="-15" y="-10" as="offset" />
          </mxGeometry>
        </mxCell>
        <mxCell id="Qs7e2NvcmOTpZu29L-sS-6" value="q1" style="ellipse;whiteSpace=wrap;html=1;aspect=fixed;" vertex="1" parent="1">
          <mxGeometry x="1081" y="120.05000000000001" width="40" height="40" as="geometry" />
        </mxCell>
        <mxCell id="Qs7e2NvcmOTpZu29L-sS-12" style="edgeStyle=orthogonalEdgeStyle;rounded=0;orthogonalLoop=1;jettySize=auto;html=1;" edge="1" parent="1" source="Qs7e2NvcmOTpZu29L-sS-9" target="Qs7e2NvcmOTpZu29L-sS-11">
          <mxGeometry relative="1" as="geometry" />
        </mxCell>
        <mxCell id="Qs7e2NvcmOTpZu29L-sS-13" value="send" style="edgeLabel;html=1;align=center;verticalAlign=middle;resizable=0;points=[];" vertex="1" connectable="0" parent="Qs7e2NvcmOTpZu29L-sS-12">
          <mxGeometry x="0.1899" y="-1" relative="1" as="geometry">
            <mxPoint x="-8" y="-13" as="offset" />
          </mxGeometry>
        </mxCell>
        <mxCell id="Qs7e2NvcmOTpZu29L-sS-9" value="q2" style="ellipse;whiteSpace=wrap;html=1;aspect=fixed;" vertex="1" parent="1">
          <mxGeometry x="1201" y="120.05000000000001" width="40" height="40" as="geometry" />
        </mxCell>
        <mxCell id="Qs7e2NvcmOTpZu29L-sS-11" value="q3" style="ellipse;whiteSpace=wrap;html=1;aspect=fixed;" vertex="1" parent="1">
          <mxGeometry x="1320" y="120.05000000000001" width="40" height="40" as="geometry" />
        </mxCell>
      </root>
    </mxGraphModel>
  </diagram>
</mxfile>
